inDegrees=yes
name=ik_Xsens_quaternion
DataType=double
version=3
OpenSimVersion=4.4-2022-07-23-0e9fedc
endheader
time	pelvis_tilt	pelvis_list	pelvis_rotation	pelvis_tx	pelvis_ty	pelvis_tz	hip_flexion_r	hip_adduction_r	hip_rotation_r	knee_angle_r	knee_angle_r_beta	ankle_angle_r	subtalar_angle_r	mtp_angle_r	hip_flexion_l	hip_adduction_l	hip_rotation_l	knee_angle_l	knee_angle_l_beta	ankle_angle_l	subtalar_angle_l	mtp_angle_l	lumbar_extension	lumbar_bending	lumbar_rotation	arm_flex_r	arm_add_r	arm_rot_r	elbow_flex_r	pro_sup_r	wrist_flex_r	wrist_dev_r	arm_flex_l	arm_add_l	arm_rot_l	elbow_flex_l	pro_sup_l	wrist_flex_l	wrist_dev_l
34.76666666666667	0	0	0	0	0.93	0	0	0	0	2.426570649309934e-20	0	0	0	0	0	0	0	2.426570649309934e-20	0	0	0	0	0	0	0	0	0	0	2.426570649309934e-20	2.426570649309934e-20	0	0	-87192471.61609904	552464109.5138749	-285674921.9692389	883139064.1591386	330574630.3492033	0	0
34.78333333333333	0	0	0	0	0.93	0	0	0	0	2.426570649309934e-20	0	0	0	0	0	0	0	2.426570649309934e-20	0	0	0	0	0	0	0	0	0	0	2.426570649309934e-20	2.426570649309934e-20	0	0	-87192471.62573496	552464109.5726259	-285674921.9451898	883139064.1995213	330574630.3226019	0	0
34.8	0	0	0	0	0.93	0	0	0	0	2.426570649309934e-20	0	0	0	0	0	0	0	2.426570649309934e-20	0	0	0	0	0	0	0	0	0	0	2.426570649309934e-20	2.426570649309934e-20	0	0	-87192471.62966108	552464109.625425	-285674921.9331931	883139064.2144742	330574630.3267691	0	0
34.81666666666666	0	0	0	0	0.93	0	0	0	0	2.426570649309934e-20	0	0	0	0	0	0	0	2.426570649309934e-20	0	0	0	0	0	0	0	0	0	0	2.426570649309934e-20	2.426570649309934e-20	0	0	-87192471.64178042	552464109.6744765	-285674921.9394983	883139064.2402712	330574630.3248898	0	0
34.83333333333334	0	0	0	0	0.93	0	0	0	0	2.426570649309934e-20	0	0	0	0	0	0	0	2.426570649309934e-20	0	0	0	0	0	0	0	0	0	0	2.426570649309934e-20	2.426570649309934e-20	0	0	-87192471.64196709	552464109.7220703	-285674921.947358	883139064.2656715	330574630.2892163	0	0
34.85	0	0	0	0	0.93	0	0	0	0	2.426570649309934e-20	0	0	0	0	0	0	0	2.426570649309934e-20	0	0	0	0	0	0	0	0	0	0	2.426570649309934e-20	2.426570649309934e-20	0	0	-87192471.64912809	552464109.7749918	-285674921.9361328	883139064.2920871	330574630.256304	0	0
34.86666666666667	0	0	0	0	0.93	0	0	0	0	2.426570649309934e-20	0	0	0	0	0	0	0	2.426570649309934e-20	0	0	0	0	0	0	0	0	0	0	2.426570649309934e-20	2.426570649309934e-20	0	0	-87192471.65918116	552464109.8294077	-285674921.9230132	883139064.3122206	330574630.2599285	0	0
34.88333333333333	0	0	0	0	0.93	0	0	0	0	4.042846830522452e-47	1.710569414459005e-49	0	0	0	0	0	0	4.042846830522452e-47	1.710569414459005e-49	0	0	0	0	0	0	0	0	0	4.042846830522452e-47	4.042846830522452e-47	0	0	-87192471.67446692	552464109.884849	-285674921.8938169	883139064.3529978	330574630.2167895	0	0
34.9	0	0	0	0	0.93	0	0	0	0	0	0	0	0	0	0	0	0	0	0	0	0	0	0	0	0	0	0	0	0	0	0	0	-87192471.70047176	552464109.9383633	-285674921.8708782	883139064.4123112	330574630.1473821	0	0
34.91666666666666	0	0	0	0	0.93	0	0	0	0	2.426570649309934e-20	0	0	0	0	0	0	0	2.426570649309934e-20	0	0	0	0	0	0	0	0	0	0	2.426570649309934e-20	2.426570649309934e-20	0	0	-87192471.70874426	552464109.9770796	-285674921.874944	883139064.4065409	330574630.1523356	0	0
34.93333333333333	0	0	0	0	0.93	0	0	0	0	2.426570649309934e-20	0	0	0	0	0	0	0	2.426570649309934e-20	0	0	0	0	0	0	0	0	0	0	2.426570649309934e-20	2.426570649309934e-20	0	0	-87192471.72444932	552464110.0176834	-285674921.8760417	883139064.4079398	330574630.175962	0	0
34.95	0	0	0	0	0.93	0	0	0	0	2.426570649309934e-20	0	0	0	0	0	0	0	2.426570649309934e-20	0	0	0	0	0	0	0	0	0	0	2.426570649309934e-20	2.426570649309934e-20	0	0	-87192471.74128814	552464110.0501645	-285674921.8846323	883139064.4058982	330574630.1831603	0	0
34.96666666666667	0	0	0	0	0.93	0	0	0	0	2.426570649309934e-20	0	0	0	0	0	0	0	2.426570649309934e-20	0	0	0	0	0	0	0	0	0	0	2.426570649309934e-20	2.426570649309934e-20	0	0	-87192471.75579397	552464110.0769558	-285674921.8997133	883139064.3989398	330574630.1904293	0	0
34.98333333333333	0	0	0	0	0.93	0	0	0	0	2.426570649309934e-20	0	0	0	0	0	0	0	2.426570649309934e-20	0	0	0	0	0	0	0	0	0	0	2.426570649309934e-20	2.426570649309934e-20	0	0	-87192471.77706157	552464110.0966011	-285674921.9228914	883139064.385262	330574630.2318146	0	0
35	0	0	0	0	0.93	0	0	0	0	2.426570649309934e-20	0	0	0	0	0	0	0	2.426570649309934e-20	0	0	0	0	0	0	0	0	0	0	2.426570649309934e-20	2.426570649309934e-20	0	0	-87192471.79161671	552464110.1205714	-285674921.9189475	883139064.3752952	330574630.2275573	0	0
35.01666666666667	0	0	0	0	0.93	0	0	0	0	1.819927986982451e-20	2.238909388788945e-36	0	0	0	0	0	0	1.819927986982451e-20	2.238909388788945e-36	0	0	0	0	0	0	0	0	0	1.819927986982451e-20	1.819927986982451e-20	0	0	-87192471.82687744	552464110.1588683	-285674921.8886138	883139064.4194556	330574630.1788547	0	0
35.03333333333333	0	0	0	0	0.93	0	0	0	0	2.426570649309934e-20	2.238909388788945e-36	0	0	0	0	0	0	2.426570649309934e-20	2.238909388788945e-36	0	0	0	0	0	0	0	0	0	2.426570649309934e-20	2.426570649309934e-20	0	0	-87192471.85136604	552464110.1994572	-285674921.8722017	883139064.4395051	330574630.191077	0	0
35.05	0	0	0	0	0.93	0	0	0	0	0	-1.803976478984735e-38	0	0	0	0	0	0	0	-1.803976478984735e-38	0	0	0	0	0	0	0	0	0	0	0	0	0	-87192471.87824088	552464110.237404	-285674921.8449553	883139064.4691212	330574630.1920488	0	0
35.06666666666666	9.472968676736405e-29	-7.974213602108596e-28	9.714606847827863e-29	-1.835503663065556e-28	0.93	1.353986225289917e-28	-6.34879207322934e-34	2.545743055607546e-22	0	2.238564278092306e-17	3.905972925807998e-19	8.304895000752955e-19	1.970936094887389e-28	6.128777864887244e-24	3.636337197129475e-21	-1.431678521754168e-34	-1.170115448928164e-21	2.238564277728553e-17	3.905976071617448e-19	5.286902484467699e-19	8.695635230224651e-28	-7.959562508590387e-23	-1.78599231653698e-28	2.564263279170988e-21	9.714606149753246e-29	9.3183185172908e-25	-2.007785635981686e-19	-1.810732865878483e-18	2.238562911358913e-17	2.238565582593261e-17	-2.831488573625315e-20	2.127318433579462e-22	-87192471.90796275	552464110.2790594	-285674921.8210561	883139064.499687	330574630.1651398	-7.222386892575567e-21	-7.277927686408563e-21
35.08333333333334	-1.742854569918921e-11	-1.066208217185423e-11	-1.483144844967678e-11	-3.681855200228444e-23	0.9299999999999995	2.475664482017815e-24	1.090396836110237e-13	-5.815444041097296e-14	1.738610747546644e-18	1.178338194082231e-06	1.870298914099895e-08	1.578384119257368e-07	5.870518114127505e-06	1.627474097132633e-12	-5.957066521086888e-10	2.079862923373292e-10	-6.329089184646652e-10	9.664919158773832e-07	1.702677293737743e-08	7.719200531209347e-08	1.339999280516562e-06	-3.90521114110092e-16	3.3991469613572e-07	-8.24374033434166e-08	-1.743894111969878e-07	-3.513883982019442e-06	3.490316943914587e-06	1.591273622597953e-06	9.714970031475641e-07	9.714969707984625e-07	2.10441169968006e-16	4.96379109940791e-14	-87192471.93583809	552464110.3161023	-285674921.7902787	883139064.5361503	330574630.1209265	-5.429723628655859e-16	4.984657192966455e-14
